<svg xmlns="http://www.w3.org/2000/svg" version="1.1" xmlns:xlink="http://www.w3.org/1999/xlink" xmlns:svgjs="http://svgjs.dev/svgjs" width="1000" height="126" viewBox="0 0 1000 126"><g transform="matrix(1,0,0,1,-0.6060605062786522,-0.36121780913453705)"><svg viewBox="0 0 396 50" data-background-color="#ffffff" preserveAspectRatio="xMidYMid meet" height="126" width="1000" xmlns="http://www.w3.org/2000/svg" xmlns:xlink="http://www.w3.org/1999/xlink"><g id="tight-bounds" transform="matrix(1,0,0,1,0.2400000395136317,0.14334354194241428)"><svg viewBox="0 0 395.52 49.71331589753178" height="49.71331589753178" width="395.52"><g><svg viewBox="0 0 395.52 49.71331589753178" height="49.71331589753178" width="395.52"><g><svg viewBox="0 0 395.52 49.71331589753178" height="49.71331589753178" width="395.52"><g id="textblocktransform"><svg viewBox="0 0 395.52 49.71331589753178" height="49.71331589753178" width="395.52" id="textblock"><g><svg viewBox="0 0 395.52 49.71331589753178" height="49.71331589753178" width="395.52"><g transform="matrix(1,0,0,1,0,0)"><svg width="395.52" viewBox="3.690000057220459 -35.51045227050781 286.3800048828125 36.00045394897461" height="49.71331589753178" data-palette-color="#4790fc"><path d="M44.43-32.3L44.43 0 38.04 0 38.04-20.85 26.78-1.05Q26.37-0.29 25.62 0.1 24.88 0.49 24.02 0.49L24.02 0.49Q23.19 0.49 22.47 0.1 21.75-0.29 21.34-1.05L21.34-1.05 10.03-20.85 10.03 0 3.69 0 3.69-32.3Q3.69-33.4 4.33-34.25 4.98-35.11 6.03-35.4L6.03-35.4Q6.54-35.52 7.06-35.49 7.57-35.45 8.04-35.27 8.52-35.08 8.91-34.75 9.3-34.42 9.57-33.96L9.57-33.96 24.02-8.84 38.48-33.96Q39.04-34.89 40.03-35.28 41.02-35.67 42.09-35.4L42.09-35.4Q43.12-35.11 43.77-34.25 44.43-33.4 44.43-32.3L44.43-32.3ZM86.15-31.81L86.15 0 79.81 0 79.81-8.59 57.49-8.59 57.49 0 51.14 0 51.14-17.5Q51.14-21.34 52.46-24.56 53.78-27.78 56.13-30.1 58.47-32.42 61.67-33.72 64.87-35.01 68.65-35.01L68.65-35.01 82.96-35.01Q83.62-35.01 84.2-34.77 84.79-34.52 85.23-34.08 85.67-33.64 85.91-33.06 86.15-32.47 86.15-31.81L86.15-31.81ZM57.49-17.5L57.49-14.94 79.81-14.94 79.81-28.66 68.65-28.66Q68.36-28.66 67.42-28.58 66.48-28.49 65.24-28.15 64.01-27.81 62.64-27.1 61.28-26.39 60.13-25.15 58.98-23.9 58.24-22.03 57.49-20.17 57.49-17.5L57.49-17.5ZM128.46-8.91L128.46-7.69Q128.46-6.52 128.06-5.18 127.66-3.83 126.74-2.69 125.83-1.54 124.36-0.77 122.9 0 120.77 0L120.77 0 96.67 0Q95.99 0 95.41-0.24 94.82-0.49 94.39-0.92 93.96-1.34 93.72-1.93 93.48-2.51 93.48-3.2L93.48-3.2 93.48-31.81Q93.48-32.47 93.72-33.06 93.96-33.64 94.39-34.08 94.82-34.52 95.41-34.77 95.99-35.01 96.67-35.01L96.67-35.01 117.91-35.01Q119.09-35.01 120.43-34.59 121.77-34.18 122.93-33.26 124.09-32.35 124.86-30.88 125.63-29.42 125.63-27.29L125.63-27.29 125.63-26.1Q125.63-24.41 125.07-22.47 124.51-20.53 123.26-18.8L123.26-18.8Q124.34-18.14 125.28-17.21 126.22-16.28 126.92-15.06 127.63-13.84 128.05-12.3 128.46-10.77 128.46-8.91L128.46-8.91ZM122.11-7.74L122.11-8.91Q122.11-10.16 121.72-11.15 121.33-12.13 120.62-12.84 119.92-13.55 118.92-13.93 117.91-14.31 116.67-14.31L116.67-14.31 102.36-14.31 102.36-20.7 113.81-20.7Q115.06-20.7 116.06-21.08 117.06-21.46 117.77-22.17 118.48-22.88 118.85-23.86 119.23-24.85 119.23-26.1L119.23-26.1 119.23-27.29Q119.23-28.66 117.91-28.66L117.91-28.66 99.82-28.66 99.82-6.35 120.77-6.35Q120.94-6.35 121.19-6.37 121.43-6.4 121.63-6.52 121.82-6.64 121.97-6.93 122.11-7.23 122.11-7.74L122.11-7.74ZM165.32-6.35L165.32 0 142.42 0Q141.55 0 140.53-0.21 139.52-0.42 138.53-0.85 137.54-1.29 136.64-1.99 135.73-2.69 135.04-3.67 134.34-4.66 133.93-5.97 133.51-7.28 133.51-8.91L133.51-8.91 133.51-26.1Q133.51-26.98 133.72-27.99 133.93-29 134.37-29.99 134.81-30.98 135.51-31.88 136.22-32.79 137.21-33.48 138.2-34.18 139.49-34.59 140.79-35.01 142.42-35.01L142.42-35.01 165.32-35.01 165.32-28.66 142.42-28.66Q141.18-28.66 140.52-28 139.86-27.34 139.86-26.05L139.86-26.05 139.86-8.91Q139.86-7.69 140.53-7.02 141.2-6.35 142.42-6.35L142.42-6.35 165.32-6.35ZM207.56-20.85L207.56-14.16Q207.56-10.96 206.46-8.28 205.36-5.59 203.41-3.64 201.45-1.68 198.78-0.6 196.11 0.49 192.96 0.49L192.96 0.49 184.37 0.49Q181.22 0.49 178.53-0.6 175.84-1.68 173.89-3.64 171.94-5.59 170.83-8.28 169.72-10.96 169.72-14.16L169.72-14.16 169.72-20.85Q169.72-24.02 170.83-26.72 171.94-29.42 173.89-31.36 175.84-33.3 178.53-34.4 181.22-35.5 184.37-35.5L184.37-35.5 192.96-35.5Q196.11-35.5 198.78-34.4 201.45-33.3 203.41-31.36 205.36-29.42 206.46-26.72 207.56-24.02 207.56-20.85L207.56-20.85ZM201.21-14.16L201.21-20.85Q201.21-22.73 200.61-24.26 200.01-25.78 198.93-26.87 197.84-27.95 196.32-28.55 194.79-29.15 192.96-29.15L192.96-29.15 184.37-29.15Q182.51-29.15 180.98-28.55 179.46-27.95 178.36-26.87 177.26-25.78 176.66-24.26 176.06-22.73 176.06-20.85L176.06-20.85 176.06-14.16Q176.06-12.28 176.66-10.75 177.26-9.23 178.36-8.14 179.46-7.06 180.98-6.46 182.51-5.86 184.37-5.86L184.37-5.86 192.91-5.86Q194.77-5.86 196.29-6.46 197.82-7.06 198.92-8.14 200.01-9.23 200.61-10.75 201.21-12.28 201.21-14.16L201.21-14.16ZM248.82-27.29L248.82-23.24Q248.82-21.07 248.28-19.36 247.74-17.65 246.83-16.35 245.91-15.04 244.71-14.11 243.52-13.18 242.21-12.59 240.91-11.99 239.57-11.72 238.24-11.45 237.07-11.45L237.07-11.45 250.33 0 240.51 0 227.28-11.45 222.72-11.45 222.72-17.8 237.07-17.8Q238.27-17.9 239.26-18.3 240.25-18.7 240.97-19.38 241.69-20.07 242.08-21.03 242.47-22 242.47-23.24L242.47-23.24 242.47-27.25Q242.47-27.78 242.33-28.06 242.2-28.34 241.99-28.48 241.78-28.61 241.55-28.64 241.32-28.66 241.13-28.66L241.13-28.66 220.18-28.66 220.18 0 213.83 0 213.83-31.81Q213.83-32.47 214.07-33.06 214.32-33.64 214.75-34.08 215.17-34.52 215.76-34.77 216.34-35.01 217.03-35.01L217.03-35.01 241.13-35.01Q243.25-35.01 244.71-34.24 246.18-33.47 247.09-32.31 248.01-31.15 248.41-29.81 248.82-28.47 248.82-27.29L248.82-27.29ZM290.07-23.24L290.07-20.36Q290.07-18.19 289.54-16.48 289-14.77 288.08-13.46 287.17-12.16 285.97-11.23 284.78-10.3 283.47-9.72 282.16-9.13 280.83-8.86 279.5-8.59 278.33-8.59L278.33-8.59 263.97-8.59 263.97-14.94 278.33-14.94Q279.55-15.04 280.54-15.44 281.53-15.84 282.24-16.53 282.94-17.21 283.33-18.18 283.73-19.14 283.73-20.36L283.73-20.36 283.73-23.24Q283.6-24.44 283.21-25.44 282.82-26.44 282.15-27.15 281.48-27.86 280.53-28.26 279.57-28.66 278.33-28.66L278.33-28.66 264.02-28.66Q262.75-28.66 262.09-28 261.44-27.34 261.44-26.1L261.44-26.1 261.44 0 255.09 0 255.09-26.1Q255.09-28.54 255.98-30.25 256.87-31.96 258.2-33.01 259.53-34.06 261.09-34.53 262.66-35.01 263.97-35.01L263.97-35.01 278.33-35.01Q280.48-35.01 282.19-34.46 283.9-33.91 285.2-33 286.51-32.08 287.42-30.88 288.34-29.69 288.94-28.38 289.54-27.08 289.8-25.74 290.07-24.41 290.07-23.24L290.07-23.24Z" opacity="1" transform="matrix(1,0,0,1,0,0)" fill="#4790fc" class="wordmark-text-0" data-fill-palette-color="primary" id="text-0"></path></svg></g></svg></g></svg></g></svg></g><g></g></svg></g><defs></defs></svg><rect width="395.52" height="49.71331589753178" fill="none" stroke="none" visibility="hidden"></rect></g></svg></g></svg>